<?xml version="1.0" encoding="UTF-8"?>
<svg version="1.1" xmlns="http://www.w3.org/2000/svg" width="424" height="424">
<path d="M0 0 C139.92 0 279.84 0 424 0 C424 139.92 424 279.84 424 424 C284.08 424 144.16 424 0 424 C0 284.08 0 144.16 0 0 Z " fill="#E5B6BC" transform="translate(0,0)"/>
<path d="M0 0 C139.92 0 279.84 0 424 0 C424 139.92 424 279.84 424 424 C284.08 424 144.16 424 0 424 C0 284.08 0 144.16 0 0 Z M164.375 9.3125 C163.49094482 9.53123779 162.60688965 9.74997559 161.69604492 9.9753418 C124.99003801 19.25919536 94.38036366 38.20144552 67 64 C66.21753906 64.72832031 65.43507812 65.45664063 64.62890625 66.20703125 C37.42213686 92.34686851 19.39041825 129.09088615 11.25 165.5625 C10.95174316 166.88954956 10.95174316 166.88954956 10.64746094 168.2434082 C7.63495925 182.51920416 6.61431873 196.75925209 6.6875 211.3125 C6.68932281 212.07346985 6.69114563 212.8344397 6.69302368 213.61846924 C6.7413054 225.64234615 7.42301068 237.22194815 10 249 C10.18224121 249.86222168 10.36448242 250.72444336 10.55224609 251.61279297 C14.18740196 268.57381678 19.21342254 284.45140842 27 300 C27.40524902 300.81839355 27.81049805 301.63678711 28.22802734 302.47998047 C33.97845191 314.02994202 40.04884027 324.82719269 48 335 C49.09054688 336.40572266 49.09054688 336.40572266 50.203125 337.83984375 C84.43087835 380.74765685 132.2806614 408.12465202 186.5625 416.25 C212.48168027 419.09010761 239.90398556 417.11145267 265 410 C266.01320313 409.73832031 267.02640625 409.47664063 268.0703125 409.20703125 C320.13394033 394.72980837 364.23570421 358.36941781 391 312 C391.40105957 311.30922363 391.80211914 310.61844727 392.21533203 309.90673828 C401.26464312 294.13594981 407.92419454 277.29350848 412.4375 259.6875 C412.67235107 258.78314209 412.90720215 257.87878418 413.14916992 256.94702148 C416.89760252 241.32739582 417.41257434 225.36696538 417.375 209.375 C417.37412384 208.45657318 417.37324768 207.53814636 417.37234497 206.59188843 C417.32683461 192.08227248 416.61263332 178.12070655 413 164 C412.75862305 163.05253906 412.51724609 162.10507813 412.26855469 161.12890625 C397.91650181 106.75358138 363.07550043 60.11475539 314.62597656 31.49804688 C282.48709519 13.16370547 247.99816395 4.55950082 211.1875 4.5625 C210.35409088 4.56200653 209.52068176 4.56151306 208.66201782 4.56100464 C193.70705506 4.60406736 178.92190573 5.63223967 164.375 9.3125 Z " fill="#E5B6BC" transform="translate(0,0)"/>
<path d="M0 0 C1.43859375 -0.00773437 1.43859375 -0.00773437 2.90625 -0.015625 C5.5 0.25 5.5 0.25 8.5 2.25 C10.84260643 1.9897104 13.17594892 1.64286403 15.5 1.25 C29.42157848 0.0480877 41.12435998 2.61138336 54.04296875 7.625 C63.51036121 11.28557982 72.45305177 12.48679645 82.5 13.25 C82.6546875 11.579375 82.6546875 11.579375 82.8125 9.875 C83.1528125 8.080625 83.1528125 8.080625 83.5 6.25 C86.98868651 3.92420899 88.39718519 3.83134543 92.5 4.25 C94.875 5.75 94.875 5.75 96.5 7.25 C95.75 14 95.75 14 93.5 16.25 C93.83997971 21.19823764 95.66253915 25.50093312 97.59765625 30.0078125 C97.90767075 30.74451172 98.21768524 31.48121094 98.53709412 32.24023438 C99.19838455 33.80994971 99.8625282 35.37846563 100.52929688 36.94586182 C101.9182835 40.21147375 103.29311304 43.48297546 104.66842651 46.75436401 C105.34803383 48.37079585 106.02830675 49.98694802 106.70925903 51.60281372 C109.19498664 57.50506154 111.62835009 63.4259015 114 69.375 C114.45959106 70.50615234 114.45959106 70.50615234 114.9284668 71.66015625 C116.48628984 75.52891362 117.89688911 79.40592345 119.1796875 83.375 C121.48587094 91.7340947 121.48587094 91.7340947 127.08984375 97.70703125 C129.77045717 98.26773863 129.77045717 98.26773863 132.36328125 98.15234375 C133.06839844 98.18457031 133.77351563 98.21679688 134.5 98.25 C136.95970225 101.93955337 137.07750613 104.96611123 136.5 109.25 C135.125 111.75 135.125 111.75 133.5 113.25 C132.84 113.25 132.18 113.25 131.5 113.25 C132.61711744 115.89942024 133.74319023 118.54436488 134.875 121.1875 C135.19210937 121.94224609 135.50921875 122.69699219 135.8359375 123.47460938 C137.32326845 127.57543612 137.32326845 127.57543612 140.5 130.25 C139.7844136 135.11815595 136.7592575 137.2188801 133.1640625 140.2890625 C128.91684523 143.41531334 124.40471323 145.37403669 119.5 147.25 C118.77167969 147.54648438 118.04335938 147.84296875 117.29296875 148.1484375 C97.79508622 155.45562168 73.29957187 154.263801 54.03125 146.9296875 C47.39641733 143.86359058 41.27506792 139.85304882 36.5 134.25 C35.76171875 132.0078125 35.76171875 132.0078125 35.5 130.25 C36.49 129.92 37.48 129.59 38.5 129.25 C39.76458624 127.09832103 39.76458624 127.09832103 40.79931641 124.38549805 C41.2272348 123.35076859 41.6551532 122.31603912 42.09603882 121.24995422 C42.77939804 119.55421516 42.77939804 119.55421516 43.4765625 117.82421875 C44.46521672 115.42835559 45.45516194 113.03302482 46.44628906 110.63818359 C46.82582387 109.71541421 46.82582387 109.71541421 47.21302605 108.77400303 C49.77559064 102.54866593 52.45329336 96.37584244 55.1484375 90.20703125 C56.09504661 88.03348032 57.04157926 85.8598961 57.98803711 83.6862793 C58.69692581 82.06005142 58.69692581 82.06005142 59.4201355 80.40097046 C68.27431076 60.08333777 77.03573297 39.73337653 85.5 19.25 C84.76007813 19.41008545 84.02015625 19.5701709 83.2578125 19.73510742 C72.27413633 21.78579555 60.69463493 20.57602567 49.875 18.25 C35.39710001 15.16130971 21.6402962 14.36092862 8 20.9375 C2.31319941 23.07005022 -2.6725438 23.30887286 -8.41015625 21.16015625 C-10.27775363 20.29296769 -12.12900572 19.38917133 -13.95703125 18.44140625 C-25.05089405 13.24382076 -40.55094873 15.76191564 -52.0625 18.25 C-59.10184831 19.76848424 -65.78943862 20.63619544 -73 20.625 C-73.78318604 20.62628906 -74.56637207 20.62757812 -75.37329102 20.62890625 C-79.5552505 20.54797993 -82.69047399 19.90326832 -86.5 18.25 C-86.2326001 18.81638184 -85.9652002 19.38276367 -85.68969727 19.96630859 C-81.28323208 29.46874144 -77.38491954 39.17547175 -73.4375 48.875 C-72.37197431 51.49075541 -71.30577764 54.10623028 -70.2379303 56.72103882 C-69.57867105 58.33555487 -68.92072224 59.95060694 -68.26438904 61.5663147 C-66.36117002 66.22977051 -64.35780922 70.83074733 -62.24440002 75.40316772 C-61.5 77.25 -61.5 77.25 -61.5 79.25 C-56.22 79.25 -50.94 79.25 -45.5 79.25 C-45.5 80.24 -45.5 81.23 -45.5 82.25 C-46.49 82.25 -47.48 82.25 -48.5 82.25 C-48.5 85.88 -48.5 89.51 -48.5 93.25 C-47.015 93.745 -47.015 93.745 -45.5 94.25 C-45.5 95.57 -45.5 96.89 -45.5 98.25 C-45.995 98.70375 -46.49 99.1575 -47 99.625 C-48.79606268 101.25452785 -48.79606268 101.25452785 -48.875 104.25 C-48.82260471 107.23697751 -48.82260471 107.23697751 -47.03515625 108.6484375 C-45.07118126 110.69736815 -44.95603903 112.08927431 -44.5625 114.875 C-43.64589154 119.99147836 -42.42811215 124.88264628 -39.5 129.25 C-36.8912295 130.4613453 -36.8912295 130.4613453 -34.5 130.25 C-37.45060249 137.20721008 -44.51633698 142.34506393 -51.27734375 145.3828125 C-62.97461252 149.9465975 -73.98167418 152.63638518 -86.5625 152.5625 C-87.5625708 152.55758545 -88.5626416 152.5526709 -89.59301758 152.54760742 C-106.72012395 152.2807448 -124.63963911 149.42900228 -137.09765625 136.60546875 C-140.5 132.71030641 -140.5 132.71030641 -140.5 130.25 C-139.84 129.92 -139.18 129.59 -138.5 129.25 C-137.51066374 126.89832378 -136.62407771 124.57087371 -135.77734375 122.16796875 C-135.24142885 120.69376708 -134.70345103 119.22031396 -134.16357422 117.74755859 C-133.8879364 116.99488708 -133.61229858 116.24221558 -133.32830811 115.46673584 C-132.08221067 112.13190327 -130.74119703 108.83955479 -129.37890625 105.55078125 C-129.11392838 104.91024811 -128.8489505 104.26971497 -128.57594299 103.60977173 C-128.02531347 102.28184982 -127.4738114 100.95428941 -126.92147827 99.6270752 C-125.39725046 95.96355654 -123.88252181 92.29611045 -122.3671875 88.62890625 C-122.05192612 87.86637543 -121.73666473 87.1038446 -121.41184998 86.31820679 C-117.15081921 76.00026562 -112.96552578 65.65139435 -108.79125977 55.2980957 C-106.08030842 48.57921731 -103.35674298 41.87004052 -100.51953125 35.203125 C-100.08680908 34.17864258 -99.65408691 33.15416016 -99.20825195 32.09863281 C-98.43276317 30.27030323 -97.64700507 28.44627613 -96.84838867 26.62792969 C-94.46388012 21.08462533 -94.46388012 21.08462533 -95.5 15.25 C-95.995 14.26 -95.995 14.26 -96.5 13.25 C-96.94396083 8.03346028 -96.94396083 8.03346028 -95.4375 5.375 C-92.3930714 3.60726726 -89.9368988 3.88176084 -86.5 4.25 C-84.5625 5.375 -84.5625 5.375 -83.5 7.25 C-83.45740315 9.24954633 -83.45394176 11.25053041 -83.5 13.25 C-70.89248219 12.62740653 -60.2823072 9.75819423 -48.55859375 5.125 C-40.61008016 2.06724321 -33.37026497 0.93233062 -24.875 1.0625 C-24.06804687 1.06314453 -23.26109375 1.06378906 -22.4296875 1.06445312 C-18.70821645 1.0916392 -15.28876909 1.28449964 -11.6015625 1.88671875 C-7.36852029 2.38252848 -4.55873331 -0.02450932 0 0 Z " fill="#EFF0EE" transform="translate(212.5,84.75)"/>
<path d="M0 0 C0.86523285 -0.0000705 1.7304657 -0.00014099 2.62191772 -0.00021362 C52.22806145 0.15378801 99.93935721 17.97487578 136.8125 51.4375 C137.845635 52.35107435 138.87949871 53.26382524 139.9140625 54.17578125 C163.47520643 75.12438063 181.44748459 102.05349646 192.8125 131.4375 C193.0707959 132.09314941 193.3290918 132.74879883 193.59521484 133.42431641 C196.87192859 141.83946713 199.44028402 150.34804167 201.5625 159.125 C201.76117676 159.94315186 201.95985352 160.76130371 202.16455078 161.60424805 C205.24377288 174.95150168 206.13668138 187.8049128 206.07324219 201.44921875 C206.06257061 204.16950042 206.07317093 206.88911389 206.0859375 209.609375 C206.09983622 224.95208541 205.15442589 240.08909445 201.3125 255 C201.05823242 255.99539795 200.80396484 256.9907959 200.54199219 258.01635742 C192.40396431 288.3255375 177.23528662 317.52397386 156.20556641 340.88867188 C154.7728301 342.48160548 153.36125071 344.09183167 151.94921875 345.703125 C130.87455654 369.4529862 103.86426559 386.1819849 74.8125 398.4375 C73.08580078 399.17806641 73.08580078 399.17806641 71.32421875 399.93359375 C38.4763562 413.33151482 -1.55856794 416.4265733 -36.1875 409.4375 C-37.02700195 409.27121094 -37.86650391 409.10492188 -38.73144531 408.93359375 C-57.79994707 405.04940252 -76.15531612 398.74135396 -93.28417969 389.46728516 C-95.23496877 388.41181718 -97.19896519 387.384007 -99.1640625 386.35546875 C-122.32794649 374.00852233 -142.98472697 355.98469278 -159.1875 335.4375 C-160.00347656 334.426875 -160.81945312 333.41625 -161.66015625 332.375 C-170.77071751 320.97267352 -177.66895696 308.8230141 -184 295.6875 C-184.45624756 294.74148926 -184.91249512 293.79547852 -185.38256836 292.82080078 C-188.37618535 286.48040277 -190.90815619 280.06632872 -193.1875 273.4375 C-193.42315674 272.76380371 -193.65881348 272.09010742 -193.90161133 271.39599609 C-197.72513143 260.28569766 -200.16652083 248.99732869 -202.1875 237.4375 C-202.36845215 236.48053223 -202.5494043 235.52356445 -202.73583984 234.53759766 C-204.20920984 226.12825657 -204.49632531 217.94587542 -204.44824219 209.43701172 C-204.43757794 207.2038212 -204.44817375 204.97144668 -204.4609375 202.73828125 C-204.50331378 162.92644734 -192.45247329 121.93190511 -169.1875 89.4375 C-168.47207031 88.43203125 -167.75664062 87.4265625 -167.01953125 86.390625 C-136.14181641 44.20018985 -94.78168722 17.06825701 -44.1875 4.4375 C-42.93670654 4.10717773 -41.68591309 3.77685547 -40.3972168 3.43652344 C-36.42731055 2.44816659 -32.44945042 1.80527888 -28.38671875 1.33984375 C-27.29468391 1.214636 -27.29468391 1.214636 -26.18058777 1.0868988 C-17.46544044 0.16222718 -8.75803088 -0.00518571 0 0 Z M-35.1875 16.4375 C-35.92371582 16.57671875 -36.65993164 16.7159375 -37.41845703 16.859375 C-62.2492383 21.73634591 -86.50883167 31.85142309 -107.1875 46.4375 C-108.20972656 47.15550781 -109.23195313 47.87351563 -110.28515625 48.61328125 C-117.17018722 53.6149231 -123.51453924 59.09850601 -129.65332031 64.97509766 C-130.6743102 65.94832004 -131.70233461 66.91421674 -132.73730469 67.87255859 C-151.72525034 85.4585905 -166.11730923 107.67711525 -176.1875 131.4375 C-176.71730469 132.61699219 -176.71730469 132.61699219 -177.2578125 133.8203125 C-182.19050232 145.27813531 -184.95447555 157.69294977 -187.4375 169.875 C-187.60056641 170.66632324 -187.76363281 171.45764648 -187.93164062 172.27294922 C-189.99741158 182.84134552 -190.37407121 193.36869402 -190.37280273 204.11523438 C-190.37498228 206.17078607 -190.39319563 208.225793 -190.41210938 210.28125 C-190.46826599 223.14476868 -188.94131189 235.55945055 -185.8125 248.0625 C-185.47835083 249.41529053 -185.47835083 249.41529053 -185.13745117 250.79541016 C-184.49945542 253.34601966 -183.84619688 255.89217173 -183.1875 258.4375 C-182.76017578 260.13132812 -182.76017578 260.13132812 -182.32421875 261.859375 C-176.07352328 284.25523175 -164.62504686 305.3192859 -150.1875 323.4375 C-149.56230469 324.26636719 -148.93710938 325.09523438 -148.29296875 325.94921875 C-116.94960692 366.31847965 -70.6615188 391.36286286 -20.22265625 397.7421875 C27.63627975 402.95250185 77.71172684 389.01048231 115.8125 359.4375 C116.65296875 358.80714844 117.4934375 358.17679687 118.359375 357.52734375 C130.10346482 348.48900011 140.82838372 338.22186032 149.8125 326.4375 C150.62074219 325.43332031 151.42898438 324.42914063 152.26171875 323.39453125 C170.42695172 300.70980227 182.24113869 273.64190617 188.8125 245.4375 C188.97766113 244.74865723 189.14282227 244.05981445 189.31298828 243.35009766 C192.17630619 230.73314048 192.09851969 217.93134308 192.125 205.0625 C192.12867584 204.19937195 192.13235168 203.3362439 192.13613892 202.44696045 C192.19556865 175.67815787 186.5425501 149.5811574 174.8125 125.4375 C174.43222656 124.64939941 174.05195313 123.86129883 173.66015625 123.04931641 C151.63931574 78.02391752 115.25089813 45.12806655 69.06176758 26.36010742 C67.05025254 25.53502164 65.05733087 24.67794786 63.06640625 23.8046875 C33.33602791 11.31293189 -3.92786269 10.47471615 -35.1875 16.4375 Z " fill="#E4B8BD" transform="translate(211.1875,4.5625)"/>
<path d="M0 0 C0.86523285 -0.0000705 1.7304657 -0.00014099 2.62191772 -0.00021362 C52.22806145 0.15378801 99.93935721 17.97487578 136.8125 51.4375 C137.845635 52.35107435 138.87949871 53.26382524 139.9140625 54.17578125 C163.47520643 75.12438063 181.44748459 102.05349646 192.8125 131.4375 C193.0707959 132.09314941 193.3290918 132.74879883 193.59521484 133.42431641 C196.87192859 141.83946713 199.44028402 150.34804167 201.5625 159.125 C201.76117676 159.94315186 201.95985352 160.76130371 202.16455078 161.60424805 C205.24377288 174.95150168 206.13668138 187.8049128 206.07324219 201.44921875 C206.06257061 204.16950042 206.07317093 206.88911389 206.0859375 209.609375 C206.09983622 224.95208541 205.15442589 240.08909445 201.3125 255 C201.05823242 255.99539795 200.80396484 256.9907959 200.54199219 258.01635742 C192.40396431 288.3255375 177.23528662 317.52397386 156.20556641 340.88867188 C154.7728301 342.48160548 153.36125071 344.09183167 151.94921875 345.703125 C130.87455654 369.4529862 103.86426559 386.1819849 74.8125 398.4375 C73.08580078 399.17806641 73.08580078 399.17806641 71.32421875 399.93359375 C38.4763562 413.33151482 -1.55856794 416.4265733 -36.1875 409.4375 C-37.02700195 409.27121094 -37.86650391 409.10492188 -38.73144531 408.93359375 C-57.79994707 405.04940252 -76.15531612 398.74135396 -93.28417969 389.46728516 C-95.23496877 388.41181718 -97.19896519 387.384007 -99.1640625 386.35546875 C-122.32794649 374.00852233 -142.98472697 355.98469278 -159.1875 335.4375 C-160.00347656 334.426875 -160.81945312 333.41625 -161.66015625 332.375 C-170.77071751 320.97267352 -177.66895696 308.8230141 -184 295.6875 C-184.45624756 294.74148926 -184.91249512 293.79547852 -185.38256836 292.82080078 C-188.37618535 286.48040277 -190.90815619 280.06632872 -193.1875 273.4375 C-193.42315674 272.76380371 -193.65881348 272.09010742 -193.90161133 271.39599609 C-197.72513143 260.28569766 -200.16652083 248.99732869 -202.1875 237.4375 C-202.36845215 236.48053223 -202.5494043 235.52356445 -202.73583984 234.53759766 C-204.20920984 226.12825657 -204.49632531 217.94587542 -204.44824219 209.43701172 C-204.43757794 207.2038212 -204.44817375 204.97144668 -204.4609375 202.73828125 C-204.50331378 162.92644734 -192.45247329 121.93190511 -169.1875 89.4375 C-168.47207031 88.43203125 -167.75664062 87.4265625 -167.01953125 86.390625 C-136.14181641 44.20018985 -94.78168722 17.06825701 -44.1875 4.4375 C-42.93670654 4.10717773 -41.68591309 3.77685547 -40.3972168 3.43652344 C-36.42731055 2.44816659 -32.44945042 1.80527888 -28.38671875 1.33984375 C-27.29468391 1.214636 -27.29468391 1.214636 -26.18058777 1.0868988 C-17.46544044 0.16222718 -8.75803088 -0.00518571 0 0 Z M-118.1875 43.4375 C-119.156875 44.19804688 -120.12625 44.95859375 -121.125 45.7421875 C-160.32154458 77.20830246 -185.98987206 118.2697019 -196.1875 167.4375 C-196.43741699 168.59330566 -196.43741699 168.59330566 -196.69238281 169.77246094 C-201.57402326 193.0689024 -200.871074 219.18558342 -196.1875 242.4375 C-196.02121094 243.31728516 -195.85492188 244.19707031 -195.68359375 245.10351562 C-188.37282734 283.30903933 -169.97535196 317.45174669 -143.1875 345.4375 C-142.66704102 345.99050781 -142.14658203 346.54351562 -141.61035156 347.11328125 C-107.82178611 382.90128961 -58.52698474 406.13178413 -9.17578125 407.7890625 C15.44758617 408.43872232 39.53725008 406.01800052 62.8125 397.4375 C64.11681077 396.98069374 65.42151039 396.5249965 66.7265625 396.0703125 C98.96461633 384.62872556 129.96461122 365.03932754 151.8125 338.4375 C152.555 337.59445312 153.2975 336.75140625 154.0625 335.8828125 C161.225957 327.62245114 167.10642711 318.75056492 172.8125 309.4375 C173.20824219 308.80392578 173.60398437 308.17035156 174.01171875 307.51757812 C185.35784225 289.22050183 194.00145842 267.46934025 198 246.3125 C198.16435547 245.49652344 198.32871094 244.68054688 198.49804688 243.83984375 C200.70331519 232.53672759 200.99889299 221.4358544 200.99780273 209.9543457 C200.9999745 207.40493691 201.0181415 204.85597242 201.03710938 202.30664062 C201.08860085 187.48777036 200.04616779 172.98352777 195.99609375 158.65234375 C195.38424009 156.47497085 194.77500874 154.29799968 194.18798828 152.11376953 C187.35336039 126.75356835 175.56518499 104.36270842 159.8125 83.4375 C158.84763672 82.15166016 158.84763672 82.15166016 157.86328125 80.83984375 C153.92088403 75.75687878 149.66347838 70.98266507 145.3125 66.25 C144.79067139 65.67958984 144.26884277 65.10917969 143.73120117 64.52148438 C115.93713763 34.70673941 74.97363181 13.6479843 34.8125 7.4375 C33.25764767 7.1597754 31.7029713 6.88106454 30.1484375 6.6015625 C-20.63609489 -2.07423062 -77.58375142 11.39860464 -118.1875 43.4375 Z " fill="#EEEEED" transform="translate(211.1875,4.5625)"/>
<path d="M0 0 C19.35781945 17.50321355 34.14950484 39.11438004 45.39453125 62.5546875 C45.80316406 63.40554932 46.21179688 64.25641113 46.6328125 65.13305664 C51.26689944 75.01002606 54.60053119 85.03259068 57.20703125 95.6171875 C57.45839844 96.59494141 57.70976562 97.57269531 57.96875 98.58007812 C61.53442991 112.88946896 62.46005147 126.75863338 62.39453125 141.4296875 C62.39204376 142.3175293 62.38955627 143.20537109 62.38699341 144.12011719 C62.15901326 196.66569176 40.56320656 243.46175215 4.08203125 280.8046875 C1.50532511 283.26007979 -1.16707717 285.54781237 -3.91796875 287.8046875 C-4.71332031 288.48789062 -5.50867188 289.17109375 -6.328125 289.875 C-44.18709104 321.87948676 -93.58818754 337.7998048 -142.91796875 334.8046875 C-156.84241738 333.50554313 -170.65539585 331.31463042 -183.91796875 326.8046875 C-185.10648438 326.43601562 -186.295 326.06734375 -187.51953125 325.6875 C-214.40838234 317.16991363 -238.11215801 302.91595875 -258.39208984 283.27929688 C-259.44854397 282.25833961 -260.51186292 281.24445605 -261.58056641 280.23632812 C-289.50306867 253.88038294 -307.601357 220.17329764 -315.91796875 182.8046875 C-316.09054199 182.1034375 -316.26311523 181.4021875 -316.44091797 180.6796875 C-319.44911398 168.19261635 -320.26990367 155.73267452 -320.16796875 142.9296875 C-320.16486694 142.23058258 -320.16176514 141.53147766 -320.15856934 140.81118774 C-320.10427438 130.35120393 -319.76022172 120.1254911 -317.91796875 109.8046875 C-317.7890625 109.06573242 -317.66015625 108.32677734 -317.52734375 107.56542969 C-315.39103634 95.60309725 -312.12537535 84.19713758 -307.91796875 72.8046875 C-307.52867187 71.75023437 -307.139375 70.69578125 -306.73828125 69.609375 C-297.77887749 46.93281513 -283.67371371 26.41373429 -266.91796875 8.8046875 C-266.4075 8.2669873 -265.89703125 7.72928711 -265.37109375 7.17529297 C-236.95277013 -22.56268995 -200.28100734 -40.80143338 -159.91796875 -48.1953125 C-159.22509766 -48.32518555 -158.53222656 -48.45505859 -157.81835938 -48.58886719 C-101.46800357 -58.67767211 -42.02549763 -37.32604338 0 0 Z M-175.66796875 -40.0703125 C-176.78413574 -39.76536865 -177.90030273 -39.4604248 -179.05029297 -39.14624023 C-189.07953186 -36.3122651 -198.49843772 -32.623721 -207.91796875 -28.1953125 C-208.61035645 -27.87981445 -209.30274414 -27.56431641 -210.01611328 -27.23925781 C-225.06720279 -20.3605927 -238.46119384 -11.07027472 -250.91796875 -0.1953125 C-251.42924316 0.24893066 -251.94051758 0.69317383 -252.46728516 1.15087891 C-272.54007202 18.71682718 -287.71564097 40.47752066 -299.16796875 64.4921875 C-299.48540039 65.15669922 -299.80283203 65.82121094 -300.12988281 66.50585938 C-304.49856755 75.90473316 -307.56797484 85.56661699 -310.04296875 95.6171875 C-310.29433594 96.59494141 -310.54570312 97.57269531 -310.8046875 98.58007812 C-314.02157198 111.48972188 -315.25168357 124.05350562 -315.17871094 137.30786133 C-315.1680273 139.60460086 -315.17865625 141.90055014 -315.19140625 144.19726562 C-315.23233246 183.99720947 -302.67398538 223.37566805 -277.91796875 254.8046875 C-277.21542969 255.71605469 -276.51289063 256.62742187 -275.7890625 257.56640625 C-267.2578803 268.328579 -257.7702353 279.31884364 -246.91796875 287.8046875 C-246.37479004 288.23313965 -245.83161133 288.6615918 -245.27197266 289.10302734 C-224.00867511 305.78088726 -201.10593708 317.81392441 -174.91796875 324.8046875 C-173.96164551 325.0629834 -173.00532227 325.3212793 -172.02001953 325.58740234 C-125.46964707 337.61710026 -75.55638931 328.16346985 -34.40234375 304.2265625 C-26.7688363 299.63857036 -19.72766159 294.55107282 -12.91796875 288.8046875 C-11.59925781 287.76054688 -11.59925781 287.76054688 -10.25390625 286.6953125 C0.46298649 278.18217517 9.72044953 268.6280547 18.08203125 257.8046875 C18.72374268 256.98556885 18.72374268 256.98556885 19.37841797 256.14990234 C26.59479349 246.8910093 32.55006358 237.22606604 38.01123047 226.84082031 C38.95960782 225.03747623 39.92759967 223.24447739 40.8984375 221.453125 C44.05113391 215.46379198 46.29521842 209.52484279 48.125 203.0078125 C49.08203125 199.8046875 49.08203125 199.8046875 50.53125 196.2421875 C52.70886214 190.53046256 53.6335276 184.55172948 54.70703125 178.5546875 C55.031875 176.82798828 55.031875 176.82798828 55.36328125 175.06640625 C60.72131073 145.72954111 58.81661101 116.51969377 49.82421875 88.15136719 C49.14796443 86.01315782 48.50151614 83.86853787 47.86328125 81.71875 C44.90505436 72.18446468 40.7776059 63.57144771 36.08203125 54.8046875 C35.72592773 54.12728516 35.36982422 53.44988281 35.00292969 52.75195312 C28.184773 39.82752649 20.07409809 28.81394808 10.15234375 18.0625 C8.29774259 16.03993496 6.53167964 13.96984766 4.76953125 11.8671875 C-20.88956767 -17.3736163 -59.98544092 -36.59670798 -97.91796875 -43.1953125 C-99.41420776 -43.46239014 -99.41420776 -43.46239014 -100.94067383 -43.73486328 C-109.84718665 -45.17840106 -118.53503703 -45.50532171 -127.53100586 -45.45605469 C-129.84971343 -45.4453391 -132.16764388 -45.4560167 -134.48632812 -45.46875 C-148.61509754 -45.48468802 -162.00066317 -43.83173285 -175.66796875 -40.0703125 Z " fill="#EEEEED" transform="translate(340.91796875,68.1953125)"/>
<path d="M0 0 C0.66 0.33 1.32 0.66 2 1 C1.67 20.14 1.34 39.28 1 59 C15.19 59 29.38 59 44 59 C44 59.99 44 60.98 44 62 C43.01 62 42.02 62 41 62 C41 65.63 41 69.26 41 73 C42.485 73.495 42.485 73.495 44 74 C44 75.32 44 76.64 44 78 C43.505 78.45375 43.01 78.9075 42.5 79.375 C40.70393732 81.00452785 40.70393732 81.00452785 40.625 84 C40.67739529 86.98697751 40.67739529 86.98697751 42.46484375 88.3984375 C44.42881874 90.44736815 44.54396097 91.83927431 44.9375 94.625 C45.85410846 99.74147836 47.07188785 104.63264628 50 109 C52.6087705 110.2113453 52.6087705 110.2113453 55 110 C52.04939751 116.95721008 44.98366302 122.09506393 38.22265625 125.1328125 C26.52538748 129.6965975 15.51832582 132.38638518 2.9375 132.3125 C1.9374292 132.30758545 0.9373584 132.3026709 -0.09301758 132.29760742 C-18.52304512 132.01044359 -34.38489075 128.1632206 -48.5 115.8125 C-50 114 -50 114 -50 111 C-46.98509443 109.99503148 -44.95818308 109.89664697 -41.8125 109.9375 C-40.46091797 109.95103516 -40.46091797 109.95103516 -39.08203125 109.96484375 C-38.39496094 109.97644531 -37.70789063 109.98804688 -37 110 C-37.48726562 109.60683594 -37.97453125 109.21367187 -38.4765625 108.80859375 C-40.45906657 106.45500558 -40.4024613 105.10612714 -40.375 102.0625 C-40.38273437 101.20785156 -40.39046875 100.35320312 -40.3984375 99.47265625 C-39.92380284 96.52712937 -39.06392731 95.13256148 -37 93 C-34.3125 92.75 -34.3125 92.75 -32 93 C-32.33 93.680625 -32.66 94.36125 -33 95.0625 C-34.45990674 99.35097604 -34.73856373 103.19975091 -33 107.4375 C-32.67 107.953125 -32.34 108.46875 -32 109 C-31.01 109 -30.02 109 -29 109 C-29.66 108.01 -30.32 107.02 -31 106 C-31.75447546 101.31523374 -31.61752228 97.94558099 -29 93.9375 C-28.34 93.298125 -27.68 92.65875 -27 92 C-25.35 92.33 -23.7 92.66 -22 93 C-22.66 92.01 -23.32 91.02 -24 90 C-24.30078125 87.40625 -24.30078125 87.40625 -24.3125 84.5 C-24.32925781 83.5409375 -24.34601563 82.581875 -24.36328125 81.59375 C-24 79 -24 79 -22.66796875 77.21875 C-21 76 -21 76 -18 75 C-18.66 74.01 -19.32 73.02 -20 72 C-20.30078125 69.87890625 -20.30078125 69.87890625 -20.3125 67.5625 C-20.32925781 66.80066406 -20.34601563 66.03882813 -20.36328125 65.25390625 C-19.87769619 62.24119034 -19.23756869 61.10903277 -17 59 C-14.12961948 58.70438924 -11.66245255 58.62056984 -8.8125 58.75 C-8.06291016 58.76804688 -7.31332031 58.78609375 -6.54101562 58.8046875 C-4.6934629 58.85175891 -2.84656841 58.92350234 -1 59 C-1.00222061 58.29034088 -1.00444122 57.58068176 -1.00672913 56.84951782 C-1.02674744 50.16901448 -1.04198202 43.48851947 -1.05181217 36.80799294 C-1.05703579 33.37328438 -1.06412401 29.93860057 -1.07543945 26.50390625 C-1.08836035 22.55729465 -1.09323252 18.61069316 -1.09765625 14.6640625 C-1.10281754 13.42757965 -1.10797882 12.1910968 -1.11329651 10.91714478 C-1.11337204 9.77611298 -1.11344757 8.63508118 -1.11352539 7.45947266 C-1.115746 6.451315 -1.11796661 5.44315735 -1.12025452 4.40444946 C-1 2 -1 2 0 0 Z " fill="#F0F0EF" transform="translate(123,105)"/>
<path d="M0 0 C0.33 0 0.66 0 1 0 C1 1.98 1 3.96 1 6 C11.56 6 22.12 6 33 6 C33.33 5.34 33.66 4.68 34 4 C34.495 4.495 34.495 4.495 35 5 C37.5427952 5.49331124 40.0940669 5.89978037 42.65234375 6.3046875 C45 7 45 7 47 10 C47.55485498 16.99117276 47.55485498 16.99117276 45.625 20.5 C44 22 44 22 42 22 C43.11711744 24.64942024 44.24319023 27.29436488 45.375 29.9375 C45.69210937 30.69224609 46.00921875 31.44699219 46.3359375 32.22460938 C47.82326845 36.32543612 47.82326845 36.32543612 51 39 C50.2844136 43.86815595 47.2592575 45.9688801 43.6640625 49.0390625 C39.41684523 52.16531334 34.90471323 54.12403669 30 56 C28.90751953 56.44472656 28.90751953 56.44472656 27.79296875 56.8984375 C8.29508622 64.20562168 -16.20042813 63.013801 -35.46875 55.6796875 C-42.10358267 52.61359058 -48.22493208 48.60304882 -53 43 C-53.37577868 41.67800179 -53.71580056 40.34466337 -54 39 C-52.12054688 39.08701172 -52.12054688 39.08701172 -50.203125 39.17578125 C-48.5521206 39.22268478 -46.90107589 39.26818431 -45.25 39.3125 C-44.0125 39.3753418 -44.0125 39.3753418 -42.75 39.43945312 C-37.61000692 39.56195652 -37.61000692 39.56195652 -33.40625 36.75 C-31.93841986 33.87957661 -31.62028561 32.78359577 -32.25 29.6875 C-32.4975 28.470625 -32.745 27.25375 -33 26 C-33.99 25.67 -34.98 25.34 -36 25 C-35.67 24.01 -35.34 23.02 -35 22 C-32.03 22 -29.06 22 -26 22 C-25.67 21.01 -25.34 20.02 -25 19 C-24.34 19 -23.68 19 -23 19 C-23.1135629 17.35333797 -23.24117381 15.70763918 -23.375 14.0625 C-23.44460938 13.14597656 -23.51421875 12.22945312 -23.5859375 11.28515625 C-23.72257812 10.53105469 -23.85921875 9.77695313 -24 9 C-24.66 8.67 -25.32 8.34 -26 8 C-26 7.34 -26 6.68 -26 6 C-13.625 5.505 -13.625 5.505 -1 5 C-0.67 3.35 -0.34 1.7 0 0 Z " fill="#F0F0F0" transform="translate(302,176)"/>
<path d="M0 0 C3.63 0 7.26 0 11 0 C11.02505615 1.35343506 11.0501123 2.70687012 11.07592773 4.10131836 C11.27823986 14.93364081 11.48941699 25.76578944 11.71484375 36.59765625 C11.7357457 37.64203354 11.75664764 38.68641083 11.77818298 39.76243591 C11.97341418 48.98399749 12.33416379 58.19600235 12.74609375 67.41015625 C13.81425255 93.25122153 14.19707629 119.13921164 14 145 C8.39 145 2.78 145 -3 145 C-3.22372276 114.09518672 -2.58305594 83.25782456 -1.60931396 52.36920166 C-1.42362785 46.43377753 -1.24539216 40.49812929 -1.06640625 34.5625 C-0.71795734 23.04144457 -0.36169506 11.52064669 0 0 Z " fill="#F0F1F0" transform="translate(207,111)"/>
<path d="M0 0 C1.49356522 -0.01029488 1.49356522 -0.01029488 3.01730347 -0.02079773 C6.30538229 -0.03908373 9.5929848 -0.03522554 12.88110352 -0.02954102 C15.1688706 -0.03410195 17.45663631 -0.03940725 19.74440002 -0.04542542 C24.53847826 -0.05436008 29.33238995 -0.05192924 34.12646484 -0.04199219 C40.26792179 -0.03050238 46.40880379 -0.05071291 52.5501852 -0.07990932 C57.27455798 -0.09826146 61.99879274 -0.09798078 66.72319221 -0.0922718 C68.98739491 -0.09211847 71.25160689 -0.09817285 73.51577568 -0.11056328 C76.6827583 -0.12545226 79.84867556 -0.11481076 83.015625 -0.09765625 C83.94932419 -0.10732422 84.88302338 -0.11699219 85.84501648 -0.12695312 C92.67908677 -0.04949694 95.99516186 1.42928309 100.94750977 6.21655273 C102.07250977 8.40405273 102.07250977 8.40405273 102.07250977 15.40405273 C62.47250977 15.40405273 22.87250977 15.40405273 -17.92749023 15.40405273 C-17.92749023 7.12819067 -17.92749023 7.12819067 -14.92749023 3.40405273 C-10.27200465 -0.3696778 -5.71467081 -0.02749256 0 0 Z " fill="#F0F1F0" transform="translate(170.927490234375,274.595947265625)"/>
<path d="M0 0 C0.33 0 0.66 0 1 0 C1 25.08 1 50.16 1 76 C-7.25 76 -15.5 76 -24 76 C-24 76.66 -24 77.32 -24 78 C-22.515 78.495 -22.515 78.495 -21 79 C-20.91878076 80.60332791 -20.86070866 82.20784026 -20.8125 83.8125 C-20.76029297 85.15248047 -20.76029297 85.15248047 -20.70703125 86.51953125 C-21 89 -21 89 -22.22265625 90.7890625 C-24.4419279 92.30109373 -25.9585772 92.42787605 -28.625 92.5625 C-30.97141842 92.64641122 -30.97141842 92.64641122 -33 93 C-33.495 93.99 -33.495 93.99 -34 95 C-32.68 95.33 -31.36 95.66 -30 96 C-28.75 103.625 -28.75 103.625 -31 107 C-31.66 107 -32.32 107 -33 107 C-33 107.66 -33 108.32 -33 109 C-37.29 109 -41.58 109 -46 109 C-45.08027549 104.40137744 -43.65768931 100.58726963 -41.76171875 96.35546875 C-41.43967972 95.62685135 -41.11764069 94.89823395 -40.7858429 94.14753723 C-40.10479957 92.60926851 -39.4213312 91.07207144 -38.7355957 89.53588867 C-37.69660991 87.20791189 -36.66503559 84.87676706 -35.63476562 82.54492188 C-34.96918565 81.04407756 -34.30318335 79.54342045 -33.63671875 78.04296875 C-33.33239426 77.35623581 -33.02806976 76.66950287 -32.71452332 75.96195984 C-31.18814312 72.54712473 -29.60190913 69.18151934 -27.90673828 65.84692383 C-26.34695107 62.75740813 -25.03661255 59.66354434 -23.85546875 56.40625 C-20.0387237 46.28669021 -15.62458026 36.41576394 -11.3125 26.5 C-10.01068602 23.50059746 -8.70962868 20.50086893 -7.40922546 17.50085449 C-6.60551934 15.64732434 -5.80088777 13.79419512 -4.99519348 11.94152832 C-3.27561354 7.9811366 -1.56792964 4.02367936 0 0 Z " fill="#E4B7BD" transform="translate(300,106)"/>
<path d="M0 0 C2.75820025 3.67760033 4.4483487 7.0684974 6.14453125 11.265625 C6.43680099 11.97668396 6.72907074 12.68774292 7.03019714 13.42034912 C7.64892016 14.92885516 8.26485026 16.43850936 8.87817383 17.94921875 C9.79345735 20.20310742 10.71716041 22.45338128 11.64257812 24.703125 C14.88340216 32.6126738 18.01910399 40.5508604 20.94673157 48.58221436 C22.9177378 53.94624108 25.24142421 59.07545554 27.703125 64.23046875 C31 71.27108434 31 71.27108434 31 75 C20.77 75 10.54 75 0 75 C0 50.25 0 25.5 0 0 Z " fill="#E4B8BE" transform="translate(303,107)"/>
<path d="M0 0 C3.320625 -0.0825 6.64125 -0.165 10.0625 -0.25 C11.09511963 -0.28641602 12.12773926 -0.32283203 13.19165039 -0.36035156 C19.35210274 -0.43403692 22.99685031 0.33419154 28 4 C29.51516221 7.03032442 29.17028053 9.65114962 29 13 C28 15.9375 28 15.9375 27 18 C27.66 18.495 28.32 18.99 29 19.5 C31.44996222 22.56245278 31.59282402 24.27795438 31.38671875 28.1015625 C30.77749625 31.09229116 29.45495604 32.27489576 27 34 C23.42005898 35.68587829 20.64433469 36.24145421 16.69921875 36.1953125 C15.37796997 36.18781982 15.37796997 36.18781982 14.0300293 36.18017578 C12.37547729 36.15286377 12.37547729 36.15286377 10.6875 36.125 C7.160625 36.08375 3.63375 36.0425 0 36 C0 24.12 0 12.24 0 0 Z " fill="#EFEFEE" transform="translate(182,313)"/>
<path d="M0 0 C0.89074219 -0.02900391 1.78148437 -0.05800781 2.69921875 -0.08789062 C8.8265054 -0.14654654 12.36509308 0.73775695 17.375 4.3125 C20.3224694 7.73536768 20.8956087 10.80291041 20.7421875 15.3203125 C20.14745955 18.54702799 18.3397294 20.75239806 16.375 23.3125 C16.045 24.3025 15.715 25.2925 15.375 26.3125 C16.57896061 28.627749 16.57896061 28.627749 18.3125 30.9375 C21.375 35.24871868 21.375 35.24871868 21.375 36.3125 C17.89847599 36.86901866 14.82579104 37.10125224 11.375 36.3125 C9.44522645 34.14633994 8.21379063 31.92306138 6.82421875 29.3828125 C5.56288023 27.19330557 5.56288023 27.19330557 3.45703125 26.4921875 C1.31160055 26.17944885 1.31160055 26.17944885 -1.625 26.3125 C-1.625 29.6125 -1.625 32.9125 -1.625 36.3125 C-4.595 36.3125 -7.565 36.3125 -10.625 36.3125 C-10.64965098 31.34627651 -10.66783649 26.38008834 -10.67993164 21.41381836 C-10.6849719 19.72305684 -10.69180405 18.03229971 -10.70043945 16.34155273 C-10.71251857 13.91649293 -10.71823123 11.49149056 -10.72265625 9.06640625 C-10.72781754 8.30598526 -10.73297882 7.54556427 -10.73829651 6.76210022 C-10.73849238 4.9451743 -10.68697277 3.12836873 -10.625 1.3125 C-8.34272086 -0.96977914 -3.06034825 0.03237322 0 0 Z " fill="#EEEEED" transform="translate(229.625,312.6875)"/>
<path d="M0 0 C0.33 0 0.66 0 1 0 C1 18.48 1 36.96 1 56 C-3.95 56.33 -8.9 56.66 -14 57 C-16.07324138 60.10986207 -16.27392186 60.89108387 -16.25 64.4375 C-16.25515625 65.19933594 -16.2603125 65.96117187 -16.265625 66.74609375 C-15.9747292 69.21443018 -15.22975656 70.857686 -14 73 C-14.804375 73.309375 -15.60875 73.61875 -16.4375 73.9375 C-18.89080405 74.76335345 -18.89080405 74.76335345 -20 76 C-20.09908783 77.78940972 -20.12970379 79.58285508 -20.125 81.375 C-20.12757812 82.35210937 -20.13015625 83.32921875 -20.1328125 84.3359375 C-20.11434035 87.10464416 -20.11434035 87.10464416 -19 90 C-20.875 89.6875 -20.875 89.6875 -23 89 C-25.66823957 84.99764065 -25.71357255 81.70618084 -25 77 C-23.125 74.4375 -23.125 74.4375 -21 73 C-20.34 73 -19.68 73 -19 73 C-19.33 72.34 -19.66 71.68 -20 71 C-21.3152334 67.05429979 -21.26841061 64.16036444 -21 60 C-20.34 59.01 -19.68 58.02 -19 57 C-19.99 56.67 -20.98 56.34 -22 56 C-21.39229532 50.28862575 -19.30332377 45.4816342 -17.0703125 40.25390625 C-16.48381424 38.85989845 -16.48381424 38.85989845 -15.88546753 37.43772888 C-14.63801035 34.47673077 -13.38163464 31.51961322 -12.125 28.5625 C-11.28717322 26.57772173 -10.44992751 24.59269806 -9.61328125 22.60742188 C-6.4304481 15.06234957 -3.23108467 7.52453979 0 0 Z " fill="#E5B7BD" transform="translate(120,108)"/>
<path d="M0 0 C3.46679688 0.04882812 3.46679688 0.04882812 6.93359375 0.09765625 C10.7490636 7.45129398 14.08056957 14.94412223 17.24609375 22.59765625 C17.70048828 23.68046875 18.15488281 24.76328125 18.62304688 25.87890625 C19.05166016 26.91015625 19.48027344 27.94140625 19.921875 29.00390625 C20.50255737 30.40092773 20.50255737 30.40092773 21.0949707 31.82617188 C21.93359375 34.09765625 21.93359375 34.09765625 21.93359375 36.09765625 C18.63359375 36.09765625 15.33359375 36.09765625 11.93359375 36.09765625 C11.60359375 34.11765625 11.27359375 32.13765625 10.93359375 30.09765625 C5.32359375 30.09765625 -0.28640625 30.09765625 -6.06640625 30.09765625 C-6.39640625 32.07765625 -6.72640625 34.05765625 -7.06640625 36.09765625 C-10.03640625 36.09765625 -13.00640625 36.09765625 -16.06640625 36.09765625 C-14.99035897 29.92755537 -7.47949077 0.3534731 0 0 Z " fill="#EEEEED" transform="translate(271.06640625,312.90234375)"/>
<path d="M0 0 C0.495 1.98 0.495 1.98 1 4 C1.66 4 2.32 4 3 4 C3 23.47 3 42.94 3 63 C2.67 63 2.34 63 2 63 C1.67 45.18 1.34 27.36 1 9 C-2.25875 16.79625 -5.5175 24.5925 -8.875 32.625 C-9.90093262 35.07631348 -10.92686523 37.52762695 -11.98388672 40.05322266 C-12.79932362 42.00676499 -13.61460126 43.96037382 -14.4296875 45.9140625 C-14.8512915 46.91977295 -15.27289551 47.9254834 -15.70727539 48.96166992 C-17.63918099 53.59755298 -19.51287886 58.19709681 -21 63 C-19.68 63.33 -18.36 63.66 -17 64 C-17.66 64.99 -18.32 65.98 -19 67 C-19.21993456 71.54531422 -19.10852275 75.56590901 -18 80 C-18.639375 80.28875 -19.27875 80.5775 -19.9375 80.875 C-22.15206079 81.82823451 -22.15206079 81.82823451 -23 84 C-23.0952699 85.47668337 -23.12985959 86.95775457 -23.125 88.4375 C-23.12757812 89.21996094 -23.13015625 90.00242187 -23.1328125 90.80859375 C-23.08382548 93.17895347 -23.08382548 93.17895347 -22 96 C-22.9590625 97.051875 -22.9590625 97.051875 -23.9375 98.125 C-26.72736265 102.01389945 -26.71728709 105.3376339 -26 110 C-25.04649462 112.21637531 -25.04649462 112.21637531 -24 114 C-26.375 113.75 -26.375 113.75 -29 113 C-31.66011341 109.70652625 -31.35664501 106.06575314 -31 102 C-29.5 99.0625 -29.5 99.0625 -28 97 C-30.02045442 97.60183749 -32.02111039 98.27306096 -34 99 C-35.21977329 101.43954658 -35.20153813 103.15305849 -35.25 105.875 C-35.27578125 106.73867187 -35.3015625 107.60234375 -35.328125 108.4921875 C-34.94108924 111.45024649 -33.95124005 112.79201784 -32 115 C-33.24716797 114.98259766 -33.24716797 114.98259766 -34.51953125 114.96484375 C-35.60621094 114.95582031 -36.69289063 114.94679688 -37.8125 114.9375 C-38.89144531 114.92589844 -39.97039062 114.91429687 -41.08203125 114.90234375 C-44.06512169 114.86375234 -44.06512169 114.86375234 -47 116 C-47 115.34 -47 114.68 -47 114 C-46.01 113.505 -46.01 113.505 -45 113 C-44.01066374 110.64832378 -43.12407771 108.32087371 -42.27734375 105.91796875 C-41.74142885 104.44376708 -41.20345103 102.97031396 -40.66357422 101.49755859 C-40.3879364 100.74488708 -40.11229858 99.99221558 -39.82830811 99.21673584 C-38.58221067 95.88190327 -37.24119703 92.58955479 -35.87890625 89.30078125 C-35.61392838 88.66024811 -35.3489505 88.01971497 -35.07594299 87.35977173 C-34.52531347 86.03184982 -33.9738114 84.70428941 -33.42147827 83.3770752 C-31.89725046 79.71355654 -30.38252181 76.04611045 -28.8671875 72.37890625 C-28.55192612 71.61637543 -28.23666473 70.8538446 -27.91184998 70.06820679 C-23.65084835 59.75033619 -19.47198968 49.39910684 -15.28686523 39.05029297 C-14.67176529 37.52960093 -14.05661323 36.00892998 -13.44140625 34.48828125 C-13.14521896 33.75615417 -12.84903168 33.0240271 -12.54386902 32.26971436 C-10.73935572 27.81352175 -8.92096031 23.36331687 -7.08984375 18.91796875 C-6.66614502 17.88897461 -6.24244629 16.85998047 -5.8059082 15.79980469 C-5.04776655 13.9622085 -4.28738043 12.12553579 -3.52416992 10.29003906 C-3.19908447 9.50209961 -2.87399902 8.71416016 -2.5390625 7.90234375 C-2.26271973 7.23710693 -1.98637695 6.57187012 -1.70166016 5.88647461 C-0.97977045 3.94561108 -0.46373921 2.01673284 0 0 Z " fill="#ECEAE8" transform="translate(119,101)"/>
<path d="M0 0 C2.23942446 3.35913669 3.46461289 6.79397082 4.8125 10.5625 C6.46498213 15.0820236 8.11865812 19.48972059 10.375 23.75 C12.97954237 28.71385185 15.04606342 33.86279074 17.125 39.0625 C17.63039307 40.32175293 17.63039307 40.32175293 18.14599609 41.60644531 C20.29633848 47.03496923 22.14546302 52.43638907 24 58 C16.08 58 8.16 58 0 58 C0 38.86 0 19.72 0 0 Z " fill="#E5B7BD" transform="translate(124,106)"/>
<path d="M0 0 C1.7125296 -0.01925285 1.7125296 -0.01925285 3.45965576 -0.03889465 C5.31895721 -0.04997505 5.31895721 -0.04997505 7.21582031 -0.0612793 C8.48613098 -0.06935104 9.75644165 -0.07742279 11.06524658 -0.08573914 C13.75870419 -0.09959131 16.45203893 -0.11060399 19.14550781 -0.11816406 C22.58663115 -0.12920954 26.02710442 -0.16358628 29.4679985 -0.20333576 C32.75887443 -0.23585883 36.04980818 -0.24028631 39.34082031 -0.2487793 C40.57225769 -0.26628738 41.80369507 -0.28379547 43.07244873 -0.30183411 C49.52878711 -0.28547048 53.66298217 -0.233438 58.54394531 4.17700195 C59.16269531 4.69262695 59.78144531 5.20825195 60.41894531 5.73950195 C61.54394531 7.17700195 61.54394531 7.17700195 61.54394531 10.17700195 C36.46394531 10.17700195 11.38394531 10.17700195 -14.45605469 10.17700195 C-11.51674224 2.82872084 -7.7231623 0.07543809 0 0 Z " fill="#EFEEED" transform="translate(189.4560546875,260.822998046875)"/>
<path d="M0 0 C2.97 0 5.94 0 9 0 C9 9.57 9 19.14 9 29 C14.28 29 19.56 29 25 29 C25 31.31 25 33.62 25 36 C16.75 36 8.5 36 0 36 C0 24.12 0 12.24 0 0 Z " fill="#EFEFEE" transform="translate(134,313)"/>
<path d="M0 0 C1.1325119 0.00444122 2.2650238 0.00888245 3.43185425 0.01345825 C4.71303131 0.01360931 5.99420837 0.01376038 7.31420898 0.01391602 C8.71784621 0.02413008 10.12148186 0.03456209 11.52511597 0.04519653 C12.95715132 0.04892612 14.38918922 0.05177335 15.82122803 0.05377197 C19.59259064 0.06141276 23.3637995 0.08106495 27.13510132 0.10317993 C30.98253296 0.12362884 34.82998941 0.13277164 38.67745972 0.14285278 C46.2283111 0.16431053 53.77903575 0.19845171 61.32980347 0.24050903 C62.33440878 2.36333573 63.33335949 4.48883924 64.32980347 6.61550903 C64.88667847 7.79886841 65.44355347 8.98222778 66.01730347 10.20144653 C67.32980347 13.24050903 67.32980347 13.24050903 67.32980347 15.24050903 C66.00980347 15.24050903 64.68980347 15.24050903 63.32980347 15.24050903 C63.32980347 13.92050903 63.32980347 12.60050903 63.32980347 11.24050903 C46.16980347 11.24050903 29.00980347 11.24050903 11.32980347 11.24050903 C11.32980347 10.58050903 11.32980347 9.92050903 11.32980347 9.24050903 C27.49980347 9.24050903 43.66980347 9.24050903 60.32980347 9.24050903 C59.83480347 5.77550903 59.83480347 5.77550903 59.32980347 2.24050903 C39.52980347 2.57050903 19.72980347 2.90050903 -0.67019653 3.24050903 C-0.67019653 4.89050903 -0.67019653 6.54050903 -0.67019653 8.24050903 C2.29980347 8.73550903 2.29980347 8.73550903 5.32980347 9.24050903 C5.32980347 10.23050903 5.32980347 11.22050903 5.32980347 12.24050903 C-0.92945579 12.72199051 -0.92945579 12.72199051 -4.17019653 10.61550903 C-5.67019653 8.24050903 -5.67019653 8.24050903 -5.54519653 5.11550903 C-4.44284418 1.49349415 -3.85314993 0.34705961 0 0 Z " fill="#E6BABD" transform="translate(102.67019653320313,200.75949096679688)"/>
<path d="M0 0 C2 3 2 3 1.66622925 4.96234131 C1.39722809 5.68600891 1.12822693 6.40967651 0.85107422 7.15527344 C0.41090973 8.35259094 0.41090973 8.35259094 -0.03814697 9.57409668 C-1.49699635 13.25348163 -3.01856141 16.89479272 -4.6171875 20.515625 C-4.95622101 21.29331238 -5.29525452 22.07099976 -5.64456177 22.87225342 C-6.71772544 25.33311652 -7.79585337 27.79175534 -8.875 30.25 C-10.29248345 33.48289083 -11.70691923 36.71707995 -13.1171875 39.953125 C-13.63052643 41.12989807 -13.63052643 41.12989807 -14.15423584 42.33044434 C-16.09962505 46.82144002 -17.92191711 51.3348701 -19.6328125 55.921875 C-21.59324444 61.13899425 -23.94247081 66.04058777 -26.48730469 70.99511719 C-29.06531285 76.11618312 -31.33432854 81.37069145 -33.625 86.625 C-34.0890625 87.67945313 -34.553125 88.73390625 -35.03125 89.8203125 C-37.81224704 96.16789897 -40.46121647 102.55172821 -43 109 C-39.04 109 -35.08 109 -31 109 C-31 109.33 -31 109.66 -31 110 C-33.12472576 110.05386629 -35.24983652 110.09273071 -37.375 110.125 C-38.55835938 110.14820313 -39.74171875 110.17140625 -40.9609375 110.1953125 C-44 110 -44 110 -46 108 C-39.11486763 91.63086131 -32.12219432 75.31403108 -25.0227356 59.03671265 C-16.47850719 39.4395751 -8.01662478 19.81968984 0 0 Z " fill="#EBE6E5" transform="translate(297,106)"/>
<path d="M0 0 C2.64 0 5.28 0 8 0 C8 11.22 8 22.44 8 34 C5.36 34 2.72 34 0 34 C0 22.78 0 11.56 0 0 Z " fill="#F0F2F0" transform="translate(165,314)"/>
<path d="M0 0 C0.99 0.99 1.98 1.98 3 3 C2 6 2 6 -0.0625 7.125 C-2.44198927 9.42773155 -2.31694959 10.21306352 -2.375 13.4375 C-2.31806773 16.80219731 -1.7828219 19.12346112 0 22 C0.66 22.33 1.32 22.66 2 23 C1.67515625 23.5671875 1.3503125 24.134375 1.015625 24.71875 C-0.08329872 27.18710174 -0.26838334 28.81603219 -0.25 31.5 C-0.25515625 32.2528125 -0.2603125 33.005625 -0.265625 33.78125 C0.02749596 36.2296721 0.78183231 37.87304054 2 40 C-0.375 39.75 -0.375 39.75 -3 39 C-5.66011341 35.70652625 -5.35664501 32.06575314 -5 28 C-3.5 25.0625 -3.5 25.0625 -2 23 C-4.02045442 23.60183749 -6.02111039 24.27306096 -8 25 C-9.23689062 27.47378124 -9.13310087 29.17915317 -9.125 31.9375 C-9.12757812 32.81277344 -9.13015625 33.68804687 -9.1328125 34.58984375 C-9.09822003 37.14459056 -9.09822003 37.14459056 -8 40 C-10.64 40 -13.28 40 -16 40 C-15.3994565 35.39830272 -14.16082412 31.52643664 -12.3828125 27.24609375 C-12.12498993 26.6227565 -11.86716736 25.99941925 -11.60153198 25.35719299 C-11.05818714 24.04749506 -10.51176008 22.73907197 -9.96240234 21.43188477 C-9.12722212 19.44279228 -8.30313696 17.44937321 -7.48046875 15.45507812 C-3.0660814 4.84640502 -3.0660814 4.84640502 0 0 Z " fill="#E5BCC1" transform="translate(93,175)"/>
<path d="M0 0 C0.33 1.32 0.66 2.64 1 4 C1.66 4 2.32 4 3 4 C3 23.47 3 42.94 3 63 C2.67 63 2.34 63 2 63 C1.67 45.18 1.34 27.36 1 9 C-2.25875 16.79625 -5.5175 24.5925 -8.875 32.625 C-9.90093262 35.07631348 -10.92686523 37.52762695 -11.98388672 40.05322266 C-12.79932362 42.00676499 -13.61460126 43.96037382 -14.4296875 45.9140625 C-14.8512915 46.91977295 -15.27289551 47.9254834 -15.70727539 48.96166992 C-17.63918099 53.59755298 -19.51287886 58.19709681 -21 63 C-20.34 63.33 -19.68 63.66 -19 64 C-19.99 64 -20.98 64 -22 64 C-23.17529297 62.47265625 -23.17529297 62.47265625 -24 60 C-23.20211193 57.31574458 -22.32603926 54.97799802 -21.1953125 52.4375 C-20.88078125 51.69733643 -20.56625 50.95717285 -20.2421875 50.19458008 C-19.21706437 47.79014095 -18.17102363 45.39541021 -17.125 43 C-16.42257261 41.36012084 -15.72188941 39.71949348 -15.02294922 38.078125 C-13.64714156 34.84915177 -12.26535986 31.62285277 -10.87890625 28.3984375 C-8.54890028 22.96370149 -6.31278956 17.4934278 -4.125 12 C-3.65344482 10.83017578 -3.65344482 10.83017578 -3.17236328 9.63671875 C-1.90170884 6.45025237 -0.78243472 3.33838813 0 0 Z " fill="#E9E2E1" transform="translate(119,101)"/>
<path d="M0 0 C3.05819813 3.56211891 4.62973064 7.60674581 6.328125 11.921875 C6.64021912 12.69952209 6.95231323 13.47716919 7.27386475 14.27838135 C8.27156683 16.76670265 9.2612603 19.25810546 10.25 21.75 C11.54343328 24.99617528 12.84078813 28.2407589 14.140625 31.484375 C14.45817749 32.27888062 14.77572998 33.07338623 15.10290527 33.89196777 C17.56980149 40.02679448 20.18084188 46.08988922 22.90533447 52.11468506 C25 56.79269493 25 56.79269493 25 59 C21.69005287 60.65497356 18.00877 60.10084335 14.375 60.0625 C13.17230469 60.05573242 13.17230469 60.05573242 11.9453125 60.04882812 C9.96350994 60.03703168 7.98174567 60.01909605 6 60 C6 59.67 6 59.34 6 59 C11.28 59 16.56 59 22 59 C21.26394531 57.26234375 20.52789062 55.5246875 19.76953125 53.734375 C18.78383636 51.40625754 17.79816028 49.07813211 16.8125 46.75 C16.32974609 45.61046875 15.84699219 44.4709375 15.34960938 43.296875 C12.20793015 35.87492141 9.09353602 28.44213579 6 21 C5.50113281 19.80503906 5.00226563 18.61007813 4.48828125 17.37890625 C4.10027344 16.44949219 3.71226562 15.52007812 3.3125 14.5625 C2.91675781 13.61503906 2.52101562 12.66757813 2.11328125 11.69140625 C1.74589844 10.80324219 1.37851563 9.91507813 1 9 C0.42185547 7.66195312 0.42185547 7.66195312 -0.16796875 6.296875 C-1.10718244 3.70411608 -0.94309169 2.54634756 0 0 Z " fill="#EBE8E7" transform="translate(126,105)"/>
<path d="M0 0 C2.93695043 0.09789835 4.01307441 1.01195374 6.1875 3 C8.6545086 7.08332458 8.71692682 10.25852422 9 15 C4.05 15 -0.9 15 -6 15 C-6 7.53474848 -5.08129936 5.08129936 0 0 Z " fill="#EFF0EE" transform="translate(211,67)"/>
<path d="M0 0 C9.625 -0.25 9.625 -0.25 13 2 C13.375 5.5 13.375 5.5 13 9 C8.61501596 11.92332269 5.2225328 11.1356502 0 11 C0 7.37 0 3.74 0 0 Z " fill="#E3B7BC" transform="translate(228,321)"/>
<path d="M0 0 C1.95803507 -0.05389087 3.91648909 -0.09274217 5.875 -0.125 C7.51082031 -0.15980469 7.51082031 -0.15980469 9.1796875 -0.1953125 C12 0 12 0 14 2 C13.44444444 6.55555556 13.44444444 6.55555556 12 8 C9.98035801 8.07244053 7.95832876 8.08377188 5.9375 8.0625 C4.83277344 8.05347656 3.72804687 8.04445313 2.58984375 8.03515625 C1.30787109 8.01775391 1.30787109 8.01775391 0 8 C0 5.36 0 2.72 0 0 Z " fill="#E6B9BE" transform="translate(190,334)"/>
<path d="M0 0 C2.0078125 0.23046875 2.0078125 0.23046875 5.0078125 2.23046875 C5.1953125 4.85546875 5.1953125 4.85546875 5.0078125 7.23046875 C2.48305788 8.49284606 0.69580784 8.32903279 -2.1171875 8.29296875 C-3.02726563 8.28394531 -3.93734375 8.27492188 -4.875 8.265625 C-5.57367188 8.25402344 -6.27234375 8.24242187 -6.9921875 8.23046875 C-7.03460473 5.897521 -7.03311687 3.56344308 -6.9921875 1.23046875 C-5.11574989 -0.64596886 -2.49413049 0.05061888 0 0 Z " fill="#E7BCC0" transform="translate(196.9921875,319.76953125)"/>
<path d="M0 0 C1.65 0.33 3.3 0.66 5 1 C4.38125 1.28875 3.7625 1.5775 3.125 1.875 C0.86674235 2.93720042 0.86674235 2.93720042 -1 5 C-1.2816485 7.56656322 -1.2816485 7.56656322 -1.1875 10.4375 C-1.18105469 11.40558594 -1.17460938 12.37367188 -1.16796875 13.37109375 C-1.105232 16.10945962 -1.105232 16.10945962 0 19 C-1.875 18.6875 -1.875 18.6875 -4 18 C-6.66823957 13.99764065 -6.71357255 10.70618084 -6 6 C-4.125 3.4375 -4.125 3.4375 -2 2 C-1.34 2 -0.68 2 0 2 C0 1.34 0 0.68 0 0 Z " fill="#E6BBC2" transform="translate(101,179)"/>
<path d="M0 0 C2.375 0.3125 2.375 0.3125 5 1 C7.07324138 4.10986207 7.27392186 4.89108387 7.25 8.4375 C7.25515625 9.19933594 7.2603125 9.96117187 7.265625 10.74609375 C6.9747292 13.21443018 6.22975656 14.857686 5 17 C3.35 17 1.7 17 0 17 C0.33 16.34 0.66 15.68 1 15 C2.51853136 10.44440592 2.82359473 6.05898683 1 1.5 C0.67 1.005 0.34 0.51 0 0 Z " fill="#E0B6BB" transform="translate(331,198)"/>
<path d="M0 0 C3.29656322 1.64828161 3.75828609 4.66994907 5 8 C5 9.32 5 10.64 5 12 C2.03 12 -0.94 12 -4 12 C-3.45660208 7.43545749 -2.20536179 4.0271824 0 0 Z " fill="#E5BCC2" transform="translate(273,324)"/>
<path d="M0 0 C3.125 0.375 3.125 0.375 6 1 C6.625 3.875 6.625 3.875 7 7 C5 9 5 9 2.5 9.25 C0 9 0 9 -2 7 C-2.25 4.5 -2.25 4.5 -2 2 C-1.34 1.34 -0.68 0.68 0 0 Z " fill="#E4B7BA" transform="translate(210,92)"/>
<path d="M0 0 C2.6855594 2.6855594 3.06049974 5.37621328 4 9 C1.36 9 -1.28 9 -4 9 C-3.2884375 7.88625 -3.2884375 7.88625 -2.5625 6.75 C-1.22130673 4.38949985 -0.487688 2.63351523 0 0 Z " fill="#E2B8BF" transform="translate(344,206)"/>
<path d="M0 0 C2.78637633 4.1795645 1.79562512 6.14668677 1 11 C-0.5625 9.875 -0.5625 9.875 -2 8 C-1.75528519 5.00224356 -1.34661086 2.69322172 0 0 Z " fill="#E8CBCD" transform="translate(82,199)"/>
<path d="M0 0 C1.65 0.33 3.3 0.66 5 1 C4.443125 1.268125 3.88625 1.53625 3.3125 1.8125 C0.80287477 3.10122647 -1.59334236 4.52926478 -4 6 C-4 5.01 -4 4.02 -4 3 C-2.68 2.67 -1.36 2.34 0 2 C0 1.34 0 0.68 0 0 Z " fill="#E8C9CD" transform="translate(101,179)"/>
<path d="M0 0 C1.73543126 2.60314689 2.61121812 3.98694043 3 7 C2.34 7.66 1.68 8.32 1 9 C-1.125 2.25 -1.125 2.25 0 0 Z " fill="#ECE7E7" transform="translate(346,204)"/>
</svg>
